<svg viewBox="0 0 15.0303 9.00415" xmlns="http://www.w3.org/2000/svg" xmlns:xlink="http://www.w3.org/1999/xlink" width="15.030273" height="9.004150" fill="none" customFrame="#000000">
	<path id="Vector 330(Border)" d="M10.1464 0.8556C9.94846 0.65761 9.94846 0.346482 10.1464 0.148492C10.3444 -0.0494974 10.6556 -0.0494974 10.8536 0.148492L14.8536 4.14849C14.9714 4.26634 15.0303 4.38419 15.0303 4.50205C15.0303 4.6199 14.9714 4.73775 14.8536 4.8556L10.8536 8.8556C10.6556 9.05359 10.3444 9.05359 10.1464 8.8556C9.94846 8.65761 9.94846 8.34648 10.1464 8.14849L13.2929 5.00205L0.5 5.00205C0.22 5.00205 0 4.78205 0 4.50205C0 4.22205 0.22 4.00205 0.5 4.00205L13.2929 4.00205L10.1464 0.855599L10.1464 0.8556Z" fill="rgb(66,69,74)" fill-rule="evenodd" transform="matrix(-1,0,0,1,15.0303,0.00012207)" />
</svg>
