<svg viewBox="0 0 7.69043 17.3108" xmlns="http://www.w3.org/2000/svg" xmlns:xlink="http://www.w3.org/1999/xlink" width="7.690430" height="17.310791" fill="none" customFrame="#000000">
	<path id="f" d="M7.39345 4.65005C7.47588 4.65005 7.54182 4.68302 7.59127 4.74896C7.65721 4.79841 7.69018 4.86435 7.69018 4.94678L7.69018 6.90024C7.69018 6.98266 7.65721 7.05685 7.59127 7.12278C7.54182 7.17224 7.47588 7.19697 7.39345 7.19697L4.94545 7.19697C4.86303 7.19697 4.82182 7.23818 4.82182 7.3206L4.82182 17.0137C4.82182 17.0962 4.78885 17.1703 4.72291 17.2363C4.67345 17.2857 4.60752 17.3105 4.52509 17.3105L2.25018 17.3105C2.16776 17.3105 2.09358 17.2857 2.02764 17.2363C1.97818 17.1703 1.95345 17.0962 1.95345 17.0137L1.95345 7.3206C1.95345 7.23818 1.91224 7.19697 1.82982 7.19697L0.296727 7.19697C0.214303 7.19697 0.140121 7.17224 0.0741818 7.12278C0.0247273 7.05685 0 6.98266 0 6.90024L0 4.94678C0 4.86435 0.0247273 4.79841 0.0741818 4.74896C0.140121 4.68302 0.214303 4.65005 0.296727 4.65005L1.82982 4.65005C1.91224 4.65005 1.95345 4.60884 1.95345 4.52641L1.95345 4.08132C1.95345 3.0098 2.09358 2.18555 2.37382 1.60858C2.65406 1.01512 3.11564 0.594759 3.75855 0.347484C4.40145 0.100211 5.30812 -0.0151834 6.47855 0.00130128L7.344 0.00130128C7.42642 0.00130128 7.49236 0.0342707 7.54182 0.100211C7.60776 0.149666 7.64073 0.215605 7.64073 0.29803L7.64073 2.02895C7.64073 2.11137 7.60776 2.18555 7.54182 2.25149C7.49236 2.30095 7.42642 2.32568 7.344 2.32568L6.70109 2.32568C5.99224 2.32568 5.4977 2.4658 5.21745 2.74604C4.9537 3.02628 4.82182 3.53732 4.82182 4.27914L4.82182 4.52641C4.82182 4.60884 4.86303 4.65005 4.94545 4.65005L7.39345 4.65005Z" fill="rgb(66,69,74)" fill-rule="nonzero" />
</svg>
