<svg viewBox="0 0 16.2891 12.5869" xmlns="http://www.w3.org/2000/svg" xmlns:xlink="http://www.w3.org/1999/xlink" width="16.289062" height="12.586914" fill="none" customFrame="#000000">
	<path id="Vector" d="M16.2888 1.53301C15.7071 1.77506 15.0423 1.93643 14.3774 2.01712C15.0423 1.6137 15.624 0.96822 15.8733 0.242057C15.2085 0.645481 14.5436 0.887535 13.7125 1.0489C13.1308 0.403426 12.2166 0 11.3025 0C9.47412 0 7.9782 1.45233 7.9782 3.22739C7.9782 3.46944 7.97821 3.71149 8.06131 3.95355C5.3188 3.79218 2.82561 2.50123 1.16348 0.564791C0.914165 1.0489 0.747952 1.61369 0.747952 2.17849C0.747952 3.30807 1.3297 4.27629 2.24387 4.84109C1.66212 4.84109 1.16348 4.67972 0.747952 4.43766C0.747952 5.97067 1.91144 7.34231 3.40735 7.58436C3.15803 7.66505 2.82562 7.66505 2.49319 7.66505C2.24387 7.66505 2.07766 7.66505 1.82834 7.58436C2.24387 8.87532 3.49047 9.84354 4.98638 9.84354C3.82289 10.7311 2.41008 11.2152 0.831064 11.2152C0.581744 11.2152 0.332425 11.2152 0 11.1345C1.49591 12.022 3.24115 12.5868 5.15259 12.5868C11.3025 12.5868 14.6267 7.66505 14.6267 3.38876L14.6267 2.98533C15.2916 2.74328 15.8733 2.17848 16.2888 1.53301Z" fill="rgb(66,69,74)" fill-rule="nonzero" />
</svg>
