<svg viewBox="0 0 69 47" xmlns="http://www.w3.org/2000/svg" xmlns:xlink="http://www.w3.org/1999/xlink" width="69.000000" height="47.000000" fill="none" customFrame="#000000">
	<g id="logo">
		<path id="Vector" d="M19.3224 34.0672C15.7438 34.0672 12.8424 31.1453 12.8424 27.5416C12.8424 23.9378 15.7438 21.0159 19.3224 21.0159C22.2683 21.0159 24.7551 22.9955 25.5423 25.7055L36.747 19.1229C33.6299 12.5919 26.999 8.08301 19.3224 8.08301C8.65085 8.08301 0 16.7956 0 27.5415C0 38.2883 8.65085 47.0001 19.3224 47.0001C29.994 47.0001 38.6448 38.2883 38.6448 27.5415L25.8024 27.5415C25.8024 31.1453 22.9009 34.0672 19.3224 34.0672Z" fill="rgb(66,69,74)" fill-rule="nonzero" />
		<path id="Vector" d="M53.8221 12.2568C45.4397 12.2568 38.6445 19.1006 38.6445 27.5413L49.7926 27.5413C49.7926 25.2998 51.5963 23.4835 53.8221 23.4835C56.0472 23.4835 57.8516 25.2998 57.8516 27.5413C57.8516 29.7828 56.0472 31.5992 53.8221 31.5992C51.8978 31.5992 50.2888 30.2415 49.8884 28.4244L40.1345 34.1543C42.5835 39.2844 47.7915 42.8258 53.8221 42.8258C62.2045 42.8258 68.9997 35.9828 68.9997 27.5414C68.9997 19.1006 62.2045 12.2568 53.8221 12.2568Z" fill="rgb(66,69,74)" fill-rule="nonzero" />
		<path id="Vector" d="M37.7312 10.2289C41.4928 10.2289 45.2307 9.69808 48.8672 8.72895C50.4483 8.30759 52.1089 8.08303 53.8218 8.08303C54.7523 8.08303 55.667 8.14912 56.562 8.27743C56.1179 5.96225 54.8979 3.92496 53.1862 2.45111C51.4113 0.922598 49.1078 0 46.5893 0L20.7168 0C23.9809 6.09059 30.3765 10.2289 37.7312 10.2289Z" fill="rgb(66,69,74)" fill-rule="nonzero" />
	</g>
</svg>
