<svg viewBox="0 0 80 80" xmlns="http://www.w3.org/2000/svg" xmlns:xlink="http://www.w3.org/1999/xlink" width="80.000000" height="80.000000" fill="none" customFrame="#000000">
	<g id="play button">
		<path id="Vector 232" d="M39.167 43.3332L39.167 36.6665L43.3337 39.7776L39.167 43.3332Z" fill="rgb(55.9008,64.8125,58.5743)" fill-rule="evenodd" />
		<path id="Vector 232(Border)" d="M38.75 35.8354L38.75 44.2365L39.4371 43.6502L44.0007 39.756L38.75 35.8354ZM39.5833 42.4299L42.666 39.7994L39.5833 37.4977L39.5833 42.4299Z" fill="rgb(56,65,59)" fill-rule="evenodd" />
		<g id="Group 1000000694">
			<path id="S" d="M39.7721 10.4967C40.3161 10.4967 40.7121 10.4047 40.9601 10.2207C41.2081 10.0367 41.3321 9.77667 41.3321 9.44067C41.3321 9.24067 41.2881 9.06867 41.2001 8.92467C41.1201 8.78067 41.0001 8.65267 40.8401 8.54067C40.6881 8.42067 40.5001 8.31267 40.2761 8.21667C40.0521 8.11267 39.7961 8.01267 39.5081 7.91667C39.2201 7.81267 38.9401 7.70067 38.6681 7.58067C38.4041 7.45267 38.1681 7.29667 37.9601 7.11267C37.7601 6.92867 37.5961 6.70867 37.4681 6.45267C37.3481 6.19667 37.2881 5.88867 37.2881 5.52867C37.2881 4.77667 37.5481 4.18867 38.0681 3.76467C38.5881 3.33267 39.2961 3.11667 40.1921 3.11667C40.7121 3.11667 41.1721 3.17667 41.5721 3.29667C41.9801 3.40867 42.3001 3.53267 42.5321 3.66867L42.0641 4.89267C41.7921 4.74067 41.4921 4.62467 41.1641 4.54467C40.8441 4.46467 40.5121 4.42467 40.1681 4.42467C39.7601 4.42467 39.4401 4.50867 39.2081 4.67667C38.9841 4.84467 38.8721 5.08067 38.8721 5.38467C38.8721 5.56867 38.9081 5.72867 38.9801 5.86467C39.0601 5.99267 39.1681 6.10867 39.3041 6.21267C39.4481 6.31667 39.6121 6.41267 39.7961 6.50067C39.9881 6.58867 40.1961 6.67267 40.4201 6.75267C40.8121 6.89667 41.1601 7.04467 41.4641 7.19667C41.7761 7.34067 42.0361 7.51667 42.2441 7.72467C42.4601 7.92467 42.6241 8.16467 42.7361 8.44467C42.8481 8.71667 42.9041 9.04867 42.9041 9.44067C42.9041 10.1927 42.6361 10.7767 42.1001 11.1927C41.5721 11.6007 40.7961 11.8047 39.7721 11.8047C39.4281 11.8047 39.1121 11.7807 38.8241 11.7327C38.5441 11.6927 38.2921 11.6407 38.0681 11.5767C37.8521 11.5127 37.6641 11.4487 37.5041 11.3847C37.3441 11.3127 37.2161 11.2487 37.1201 11.1927L37.5641 9.95667C37.7801 10.0767 38.0721 10.1967 38.4401 10.3167C38.8081 10.4367 39.2521 10.4967 39.7721 10.4967Z" fill="rgb(113,129,118)" fill-rule="nonzero" />
			<path id="E" d="M1.08038 11.458L1.08038 3.142L6.42037 3.142L6.42037 4.426L2.59238 4.426L2.59238 6.478L6.00038 6.478L6.00038 7.738L2.59238 7.738L2.59238 10.174L6.70838 10.174L6.70838 11.458L1.08038 11.458Z" fill="rgb(113,129,118)" fill-rule="nonzero" transform="matrix(0.92388,0.382683,-0.382683,0.92388,51.9814,1.66699)" />
			<path id="E" d="M1.08038 11.458L1.08038 3.142L6.42037 3.142L6.42037 4.426L2.59238 4.426L2.59238 6.478L6.00038 6.478L6.00038 7.738L2.59238 7.738L2.59238 10.174L6.70838 10.174L6.70838 11.458L1.08038 11.458Z" fill="rgb(113,129,118)" fill-rule="nonzero" transform="matrix(0.707107,0.707107,-0.707107,0.707107,65.7393,9.16992)" />
			<path id="H" d="M5.97417 3.30867L7.48617 3.30867L7.48617 11.6247L5.97417 11.6247L5.97417 7.94067L2.36217 7.94067L2.36217 11.6247L0.850167 11.6247L0.850167 3.30867L2.36217 3.30867L2.36217 6.63267L5.97417 6.63267L5.97417 3.30867Z" fill="rgb(113,129,118)" fill-rule="nonzero" transform="matrix(-1.83697e-16,1,-1,-1.83697e-16,80,35.8335)" />
			<path id="O" d="M1.73864 7.294C1.73864 7.75 1.79464 8.166 1.90664 8.542C2.01864 8.91 2.17864 9.226 2.38664 9.49C2.60264 9.746 2.86264 9.946 3.16664 10.09C3.47064 10.234 3.81464 10.306 4.19864 10.306C4.57464 10.306 4.91464 10.234 5.21864 10.09C5.52264 9.946 5.77864 9.746 5.98664 9.49C6.20264 9.226 6.36664 8.91 6.47864 8.542C6.59064 8.166 6.64664 7.75 6.64664 7.294C6.64664 6.838 6.59064 6.426 6.47864 6.058C6.36664 5.682 6.20264 5.366 5.98664 5.11C5.77864 4.846 5.52264 4.642 5.21864 4.498C4.91464 4.354 4.57464 4.282 4.19864 4.282C3.81464 4.282 3.47064 4.354 3.16664 4.498C2.86264 4.642 2.60264 4.846 2.38664 5.11C2.17864 5.374 2.01864 5.69 1.90664 6.058C1.79464 6.426 1.73864 6.838 1.73864 7.294ZM8.23064 7.294C8.23064 8.006 8.12264 8.634 7.90664 9.178C7.69864 9.722 7.41064 10.178 7.04264 10.546C6.68264 10.906 6.25864 11.178 5.77064 11.362C5.28264 11.546 4.76264 11.638 4.21064 11.638C3.65864 11.638 3.13464 11.546 2.63864 11.362C2.15064 11.178 1.72264 10.906 1.35464 10.546C0.99464 10.178 0.70664 9.722 0.49064 9.178C0.27464 8.634 0.16664 8.006 0.16664 7.294C0.16664 6.582 0.27464 5.958 0.49064 5.422C0.70664 4.878 0.998641 4.422 1.36664 4.054C1.74264 3.686 2.17464 3.41 2.66264 3.226C3.15064 3.042 3.66664 2.95 4.21064 2.95C4.75464 2.95 5.27064 3.042 5.75864 3.226C6.24664 3.41 6.67064 3.686 7.03064 4.054C7.39864 4.422 7.69064 4.878 7.90664 5.422C8.12264 5.958 8.23064 6.582 8.23064 7.294Z" fill="rgb(113,129,118)" fill-rule="nonzero" transform="matrix(-0.382683,0.92388,-0.92388,-0.382683,78.4863,51.6118)" />
			<path id="W" d="M6.09314 4.078C6.22114 4.51 6.35714 4.962 6.50114 5.434C6.64514 5.898 6.79314 6.366 6.94514 6.838C7.10514 7.302 7.26114 7.762 7.41314 8.218C7.57314 8.666 7.72514 9.09 7.86914 9.49C7.98914 9.058 8.10514 8.59 8.21714 8.086C8.32914 7.574 8.44114 7.046 8.55314 6.502C8.66514 5.95 8.77314 5.39 8.87714 4.822C8.98914 4.254 9.09314 3.694 9.18914 3.142L10.7491 3.142C10.4691 4.646 10.1571 6.094 9.81314 7.486C9.46914 8.87 9.08514 10.194 8.66114 11.458L7.22114 11.458C6.59714 9.842 5.99314 8.078 5.40914 6.166C5.11314 7.134 4.81314 8.054 4.50914 8.926C4.20514 9.798 3.90114 10.642 3.59714 11.458L2.15714 11.458C1.72514 10.194 1.33714 8.87 0.993141 7.486C0.657141 6.094 0.349141 4.646 0.0691407 3.142L1.68914 3.142C1.78514 3.686 1.88514 4.242 1.98914 4.81C2.10114 5.378 2.21314 5.938 2.32514 6.49C2.44514 7.034 2.56514 7.562 2.68514 8.074C2.80514 8.586 2.92514 9.058 3.04514 9.49C3.19714 9.082 3.34914 8.654 3.50114 8.206C3.66114 7.75 3.81714 7.29 3.96914 6.826C4.12114 6.354 4.26514 5.886 4.40114 5.422C4.54514 4.958 4.67714 4.51 4.79714 4.078L6.09314 4.078Z" fill="rgb(113,129,118)" fill-rule="nonzero" transform="matrix(-0.707107,0.707107,-0.707107,-0.707107,71.9609,64.6074)" />
			<path id="I" d="M0.910714 3.30867L2.42271 3.30867L2.42271 11.6247L0.910714 11.6247L0.910714 3.30867Z" fill="rgb(113,129,118)" fill-rule="nonzero" transform="matrix(-1,-1.22465e-16,1.22465e-16,-1,41.667,80)" />
			<path id="T" d="M6.91739 3.142L6.91739 4.45L4.36139 4.45L4.36139 11.458L2.83739 11.458L2.83739 4.45L0.281391 4.45L0.281391 3.142L6.91739 3.142Z" fill="rgb(113,129,118)" fill-rule="nonzero" transform="matrix(-0.92388,-0.382683,0.382683,-0.92388,28.0186,78.333)" />
			<path id="W" d="M6.09314 4.078C6.22114 4.51 6.35714 4.962 6.50114 5.434C6.64514 5.898 6.79314 6.366 6.94514 6.838C7.10514 7.302 7.26114 7.762 7.41314 8.218C7.57314 8.666 7.72514 9.09 7.86914 9.49C7.98914 9.058 8.10514 8.59 8.21714 8.086C8.32914 7.574 8.44114 7.046 8.55314 6.502C8.66514 5.95 8.77314 5.39 8.87714 4.822C8.98914 4.254 9.09314 3.694 9.18914 3.142L10.7491 3.142C10.4691 4.646 10.1571 6.094 9.81314 7.486C9.46914 8.87 9.08514 10.194 8.66114 11.458L7.22114 11.458C6.59714 9.842 5.99314 8.078 5.40914 6.166C5.11314 7.134 4.81314 8.054 4.50914 8.926C4.20514 9.798 3.90114 10.642 3.59714 11.458L2.15714 11.458C1.72514 10.194 1.33714 8.87 0.993141 7.486C0.657141 6.094 0.349141 4.646 0.0691407 3.142L1.68914 3.142C1.78514 3.686 1.88514 4.242 1.98914 4.81C2.10114 5.378 2.21314 5.938 2.32514 6.49C2.44514 7.034 2.56514 7.562 2.68514 8.074C2.80514 8.586 2.92514 9.058 3.04514 9.49C3.19714 9.082 3.34914 8.654 3.50114 8.206C3.66114 7.75 3.81714 7.29 3.96914 6.826C4.12114 6.354 4.26514 5.886 4.40114 5.422C4.54514 4.958 4.67714 4.51 4.79714 4.078L6.09314 4.078Z" fill="rgb(113,129,118)" fill-rule="nonzero" transform="matrix(-0.382683,-0.92388,0.92388,-0.382683,5.03516,60.1113)" />
			<path id="O" d="M1.70531 7.46067C1.70531 7.91667 1.76131 8.33267 1.87331 8.70867C1.98531 9.07667 2.14531 9.39267 2.35331 9.65667C2.56931 9.91267 2.82931 10.1127 3.13331 10.2567C3.43731 10.4007 3.78131 10.4727 4.16531 10.4727C4.54131 10.4727 4.88131 10.4007 5.18531 10.2567C5.48931 10.1127 5.74531 9.91267 5.95331 9.65667C6.16931 9.39267 6.33331 9.07667 6.44531 8.70867C6.55731 8.33267 6.61331 7.91667 6.61331 7.46067C6.61331 7.00467 6.55731 6.59267 6.44531 6.22467C6.33331 5.84867 6.16931 5.53267 5.95331 5.27667C5.74531 5.01267 5.48931 4.80867 5.18531 4.66467C4.88131 4.52067 4.54131 4.44867 4.16531 4.44867C3.78131 4.44867 3.43731 4.52067 3.13331 4.66467C2.82931 4.80867 2.56931 5.01267 2.35331 5.27667C2.14531 5.54067 1.98531 5.85667 1.87331 6.22467C1.76131 6.59267 1.70531 7.00467 1.70531 7.46067ZM8.19731 7.46067C8.19731 8.17267 8.08931 8.80067 7.87331 9.34467C7.66531 9.88867 7.37731 10.3447 7.00931 10.7127C6.64931 11.0727 6.22531 11.3447 5.73731 11.5287C5.24931 11.7127 4.72931 11.8047 4.17731 11.8047C3.62531 11.8047 3.10131 11.7127 2.60531 11.5287C2.11731 11.3447 1.68931 11.0727 1.32131 10.7127C0.961307 10.3447 0.673307 9.88867 0.457307 9.34467C0.241307 8.80067 0.133307 8.17267 0.133307 7.46067C0.133307 6.74867 0.241307 6.12467 0.457307 5.58867C0.673307 5.04467 0.965307 4.58867 1.33331 4.22067C1.70931 3.85267 2.14131 3.57667 2.62931 3.39267C3.11731 3.20867 3.63331 3.11667 4.17731 3.11667C4.72131 3.11667 5.23731 3.20867 5.72531 3.39267C6.21331 3.57667 6.63731 3.85267 6.99731 4.22067C7.36531 4.58867 7.65731 5.04467 7.87331 5.58867C8.08931 6.12467 8.19731 6.74867 8.19731 7.46067Z" fill="rgb(113,129,118)" fill-rule="nonzero" transform="matrix(6.12323e-17,-1,1,6.12323e-17,0,44.1665)" />
			<path id="R" d="M3.25011 3.058C4.45011 3.058 5.36611 3.278 5.99811 3.718C6.63811 4.158 6.95811 4.83 6.95811 5.734C6.95811 6.862 6.40211 7.626 5.29011 8.026C5.44211 8.21 5.61411 8.434 5.80611 8.698C5.99811 8.962 6.19411 9.25 6.39411 9.562C6.59411 9.866 6.78611 10.182 6.97011 10.51C7.15411 10.83 7.31811 11.146 7.46211 11.458L5.77011 11.458C5.61811 11.17 5.45411 10.882 5.27811 10.594C5.10211 10.298 4.92211 10.014 4.73811 9.742C4.56211 9.462 4.38611 9.202 4.21011 8.962C4.03411 8.714 3.87011 8.494 3.71811 8.302C3.60611 8.31 3.51011 8.314 3.43011 8.314C3.35011 8.314 3.27411 8.314 3.20211 8.314L2.47011 8.314L2.47011 11.458L0.958109 11.458L0.958109 3.262C1.32611 3.182 1.71811 3.13 2.13411 3.106C2.55011 3.074 2.92211 3.058 3.25011 3.058ZM3.35811 4.366C3.03811 4.366 2.74211 4.378 2.47011 4.402L2.47011 7.09L3.13011 7.09C3.49811 7.09 3.82211 7.07 4.10211 7.03C4.38211 6.99 4.61411 6.918 4.79811 6.814C4.99011 6.71 5.13411 6.57 5.23011 6.394C5.32611 6.218 5.37411 5.994 5.37411 5.722C5.37411 5.466 5.32611 5.25 5.23011 5.074C5.13411 4.898 4.99411 4.758 4.81011 4.654C4.63411 4.55 4.42211 4.478 4.17411 4.438C3.92611 4.39 3.65411 4.366 3.35811 4.366Z" fill="rgb(113,129,118)" fill-rule="nonzero" transform="matrix(0.382683,-0.92388,0.92388,0.382683,1.66797,28.0186)" />
			<path id="K" d="M5.8558 11.458C5.6478 11.138 5.4078 10.802 5.1358 10.45C4.8638 10.098 4.5758 9.758 4.2718 9.43C3.9758 9.102 3.6678 8.79 3.3478 8.494C3.0278 8.198 2.7118 7.942 2.3998 7.726L2.3998 11.458L0.887797 11.458L0.887797 3.142L2.3998 3.142L2.3998 6.574C2.6638 6.31 2.9398 6.03 3.2278 5.734C3.5158 5.43 3.7998 5.126 4.0798 4.822C4.3678 4.51 4.6398 4.21 4.8958 3.922C5.1518 3.634 5.3838 3.374 5.5918 3.142L7.4038 3.142C7.1398 3.446 6.8598 3.762 6.5638 4.09C6.2678 4.418 5.9638 4.75 5.6518 5.086C5.3398 5.414 5.0238 5.742 4.7038 6.07C4.3918 6.398 4.0838 6.71 3.7798 7.006C4.1158 7.262 4.4558 7.562 4.7998 7.906C5.1518 8.242 5.4958 8.606 5.8318 8.998C6.1678 9.382 6.4878 9.786 6.7918 10.21C7.1038 10.626 7.3878 11.042 7.6438 11.458L5.8558 11.458Z" fill="rgb(113,129,118)" fill-rule="nonzero" transform="matrix(0.707107,-0.707107,0.707107,0.707107,9.16992,14.2617)" />
			<path id="S" d="M3.37177 10.33C3.91577 10.33 4.31177 10.238 4.55977 10.054C4.80777 9.87 4.93177 9.61 4.93177 9.274C4.93177 9.074 4.88777 8.902 4.79977 8.758C4.71977 8.614 4.59977 8.486 4.43977 8.374C4.28777 8.254 4.09977 8.146 3.87577 8.05C3.65177 7.946 3.39577 7.846 3.10777 7.75C2.81977 7.646 2.53977 7.534 2.26777 7.414C2.00377 7.286 1.76777 7.13 1.55977 6.946C1.35977 6.762 1.19577 6.542 1.06777 6.286C0.947766 6.03 0.887766 5.722 0.887766 5.362C0.887766 4.61 1.14777 4.022 1.66777 3.598C2.18777 3.166 2.89577 2.95 3.79177 2.95C4.31177 2.95 4.77177 3.01 5.17177 3.13C5.57977 3.242 5.89977 3.366 6.13177 3.502L5.66377 4.726C5.39177 4.574 5.09177 4.458 4.76377 4.378C4.44377 4.298 4.11177 4.258 3.76777 4.258C3.35977 4.258 3.03977 4.342 2.80777 4.51C2.58377 4.678 2.47177 4.914 2.47177 5.218C2.47177 5.402 2.50777 5.562 2.57977 5.698C2.65977 5.826 2.76777 5.942 2.90377 6.046C3.04777 6.15 3.21177 6.246 3.39577 6.334C3.58777 6.422 3.79577 6.506 4.01977 6.586C4.41177 6.73 4.75977 6.878 5.06377 7.03C5.37577 7.174 5.63577 7.35 5.84377 7.558C6.05977 7.758 6.22377 7.998 6.33577 8.278C6.44777 8.55 6.50377 8.882 6.50377 9.274C6.50377 10.026 6.23577 10.61 5.69977 11.026C5.17177 11.434 4.39577 11.638 3.37177 11.638C3.02777 11.638 2.71177 11.614 2.42377 11.566C2.14377 11.526 1.89177 11.474 1.66777 11.41C1.45177 11.346 1.26377 11.282 1.10377 11.218C0.943766 11.146 0.815766 11.082 0.719766 11.026L1.16377 9.79C1.37977 9.91 1.67177 10.03 2.03977 10.15C2.40777 10.27 2.85177 10.33 3.37177 10.33Z" fill="rgb(113,129,118)" fill-rule="nonzero" transform="matrix(0.92388,-0.382683,0.382683,0.92388,21.3672,4.42285)" />
		</g>
		<circle id="Ellipse 784" cx="52.4996758" cy="70.833168" r="1.66666663" fill="rgb(98,108,101)" />
		<circle id="Ellipse 786" cx="69.9996719" cy="25.8331699" r="1.66666663" fill="rgb(98,108,101)" />
		<circle id="Ellipse 785" cx="16.666666" cy="64.1666641" r="1.66666663" fill="rgb(98,108,101)" />
	</g>
</svg>
