<svg aria-hidden="true" style="position: absolute; width: 0; height: 0; overflow: hidden;" version="1.1" xmlns="http://www.w3.org/2000/svg" xmlns:xlink="http://www.w3.org/1999/xlink">
   <defs>
      <symbol id="icon-arrow-bt" viewBox="0 0 53 32">
         <path  path d="M17.357 3.041c0.703-0.704 0.703-1.809 0-2.513s-1.81-0.704-2.513 0l-14.216 14.216c-0.419 0.419-0.628 0.838-0.628 1.257s0.209 0.838 0.628 1.256l14.216 14.216c0.704 0.704 1.81 0.704 2.513 0s0.703-1.809 0-2.513l-11.182-11.182h45.465c0.995 0 1.777-0.782 1.777-1.777s-0.782-1.777-1.777-1.777h-45.465l11.182-11.182z"></path>
      </symbol>
      <symbol id="icon-i-arrow" viewBox="0 0 77 32">
         <path d="M76.8 16l-19.31-16v12.8h-57.49v6.4h57.49v12.8l19.31-16z"></path>
      </symbol>
      <symbol id="icon-i-check" viewBox="0 0 32 32">
         <path d="M13.403 0.090l10.898 6.699-0.864 0.967-10.344-6.36-11.87 7.302v14.608c3.955 2.431 7.914 4.866 11.87 7.298l11.873-7.302v-10.637l-10.005 11.782-7.341-10.768 7.341 4.277 17.040-13.573-5.815 6.848v12.444c0 0.259-0.139 0.479-0.343 0.586l-12.443 7.654c-0.199 0.119-0.434 0.11-0.617-0.004-4.158-2.558-8.313-5.117-12.471-7.675-0.195-0.119-0.307-0.335-0.307-0.56l-0.004-15.35c0-0.259 0.143-0.479 0.347-0.586l12.443-7.654c0.195-0.119 0.43-0.11 0.613 0.004z"></path>
      </symbol>
      <symbol id="icon-i-chevron" viewBox="0 0 18 32">
         <path d="M17.778 28.226l-10.993-12.227 10.993-12.227-3.393-3.773-14.385 16 14.385 16 3.393-3.773z"></path>
      </symbol>
      <symbol id="icon-i-fb" viewBox="0 0 14 32">
         <path d="M13.667 8.596c0.152 0 0.274 0.061 0.366 0.183 0.122 0.091 0.183 0.213 0.183 0.366v3.611c0 0.152-0.061 0.29-0.183 0.411-0.091 0.091-0.213 0.137-0.366 0.137h-4.525c-0.152 0-0.229 0.076-0.229 0.229v17.918c0 0.152-0.061 0.289-0.183 0.412-0.091 0.091-0.213 0.137-0.366 0.137h-4.205c-0.152 0-0.289-0.046-0.411-0.137-0.091-0.122-0.137-0.259-0.137-0.412v-17.918c0-0.152-0.076-0.229-0.229-0.229h-2.834c-0.152 0-0.289-0.046-0.411-0.137-0.091-0.122-0.137-0.259-0.137-0.411v-3.611c0-0.152 0.046-0.274 0.137-0.366 0.122-0.122 0.259-0.183 0.411-0.183h2.834c0.152 0 0.229-0.076 0.229-0.229v-0.823c0-1.981 0.259-3.504 0.777-4.571 0.518-1.097 1.371-1.874 2.56-2.331s2.864-0.67 5.028-0.64h1.6c0.152 0 0.274 0.061 0.366 0.183 0.122 0.091 0.183 0.213 0.183 0.366v3.2c0 0.152-0.061 0.289-0.183 0.411-0.091 0.091-0.213 0.137-0.366 0.137h-1.188c-1.31 0-2.225 0.259-2.743 0.777-0.488 0.518-0.731 1.463-0.731 2.834v0.457c0 0.152 0.076 0.229 0.229 0.229h4.525z"></path>
      </symbol>
      <symbol id="icon-i-play" viewBox="0 0 20 32">
         <path d="M0 0l20 14.934-20 17.067v-32.001zM3.174 25.119l11.742-10.020-11.742-8.768v18.788z"></path>
      </symbol>
      <symbol id="icon-i-twitter" viewBox="0 0 41 32">
         <path d="M41.411 3.897c-1.479 0.615-3.169 1.026-4.859 1.231 1.69-1.026 3.169-2.667 3.803-4.513-1.69 1.026-3.381 1.641-5.493 2.051-1.479-1.641-3.803-2.667-6.127-2.667-4.648 0-8.451 3.692-8.451 8.205 0 0.615 0 1.231 0.211 1.846-6.972-0.41-13.311-3.692-17.536-8.615-0.634 1.231-1.056 2.667-1.056 4.103 0 2.872 1.479 5.333 3.803 6.769-1.479 0-2.747-0.41-3.803-1.026 0 3.897 2.958 7.385 6.761 8-0.634 0.205-1.479 0.205-2.324 0.205-0.634 0-1.056 0-1.69-0.205 1.056 3.282 4.226 5.744 8.029 5.744-2.958 2.256-6.55 3.487-10.564 3.487-0.634 0-1.268 0-2.113-0.205 3.803 2.256 8.24 3.692 13.1 3.692 15.635 0 24.086-12.513 24.086-23.384v-1.026c1.69-0.615 3.169-2.051 4.226-3.692z"></path>
      </symbol>
      <symbol id="icon-logo" viewBox="0 0 47 32">
         <path d="M13.156 23.195c-2.437 0-4.412-1.989-4.412-4.443s1.975-4.443 4.412-4.443c2.006 0 3.699 1.348 4.235 3.193l7.629-4.482c-2.122-4.447-6.637-7.517-11.864-7.517-7.266 0-13.156 5.932-13.156 13.248s5.89 13.248 13.156 13.248c7.266 0 13.156-5.931 13.156-13.248h-8.744c0 2.454-1.976 4.443-4.412 4.443z"></path>
         <path d="M36.645 8.345c-5.707 0-10.334 4.66-10.334 10.406h7.59c0-1.526 1.228-2.763 2.743-2.763s2.743 1.237 2.743 2.763-1.229 2.763-2.743 2.763c-1.31 0-2.406-0.924-2.678-2.162l-6.641 3.901c1.667 3.493 5.213 5.904 9.319 5.904 5.707 0 10.334-4.659 10.334-10.406s-4.627-10.407-10.334-10.407z"></path>
         <path d="M25.689 6.964c2.561 0 5.106-0.361 7.582-1.021 1.077-0.287 2.207-0.44 3.373-0.44 0.634 0 1.256 0.045 1.866 0.132-0.302-1.576-1.133-2.963-2.298-3.967-1.208-1.041-2.777-1.669-4.492-1.669h-17.615c2.222 4.147 6.577 6.964 11.584 6.964z"></path>
      </symbol>
      <symbol id="icon-star" viewBox="0 0 36 32">
         <path d="M17.945 0l4.991 11.249 12.954 0.974-9.87 7.926 3.015 11.851-11.091-6.351-11.091 6.351 3.015-11.851-9.87-7.926 12.954-0.974 4.991-11.249z"></path>
      </symbol>
   </defs>
</svg>
