<svg viewBox="0 0 173 231" xmlns="http://www.w3.org/2000/svg" xmlns:xlink="http://www.w3.org/1999/xlink" width="173.000000" height="231.000000" fill="none" customFrame="#000000">
	<path id="01" d="M49.5117 169.501Q6.73828 169.501 6.73828 116.694Q6.73828 87.7632 17.981 74.7993Q29.2603 61.7988 49.8047 61.7988Q70.4956 61.7988 81.5918 74.7993Q92.688 87.7632 92.688 116.84Q92.688 169.501 49.5117 169.501ZM49.5117 158.991Q54.4556 158.991 58.0444 155.622Q61.6333 152.253 63.7207 142.951Q65.8447 133.649 65.8447 116.547Q65.8447 98.2368 63.7207 88.5688Q61.6333 78.9009 58.1909 75.605Q54.7485 72.3091 49.8047 72.3091Q44.8608 72.3091 41.3086 75.605Q37.793 78.9009 35.5957 88.752Q33.4351 98.5664 33.4351 116.987Q33.4351 133.796 35.5225 143.098Q37.6465 152.399 41.1621 155.695Q44.7144 158.991 49.5117 158.991ZM150.608 144.453Q150.608 151.96 154.71 154.89Q158.848 157.783 167.234 157.783Q167.234 160.346 166.245 163.422Q165.293 166.499 163.792 168L114.756 168Q113.108 166.499 112.119 163.422Q111.167 160.346 111.167 157.783Q119.114 157.783 123.362 154.816Q127.647 151.813 127.647 144.453L127.647 90.1436Q127.647 85.3462 120.909 85.3462Q118.638 85.3462 116.001 85.8955Q113.401 86.4082 111.46 87.2871L107.395 79.8164L130.796 66.1567Q135.447 63.4468 138.377 62.4946Q141.306 61.5059 143.54 61.5059Q147.312 61.5059 148.96 63.9961Q150.608 66.4497 150.608 69.5991L150.608 144.453Z" fill="rgb(23,24,26)" fill-opacity="0" fill-rule="nonzero" />
	<path id="01" d="M154.998 153.597Q151.808 150.939 151.808 144.453L151.808 69.5991Q151.808 67.2353 150.973 65.2173Q150.566 64.2346 149.961 63.3339Q149.382 62.4585 148.601 61.8363Q146.68 60.3059 143.54 60.3059Q141.109 60.3059 138.006 61.3534Q134.954 62.3453 130.191 65.1204L105.785 79.3671L110.939 88.8403L111.955 88.3803Q113.77 87.5586 116.246 87.0703Q118.762 86.5462 120.908 86.5462Q123.894 86.5462 125.266 87.5231Q125.58 87.7461 125.81 88.0354Q126.447 88.836 126.447 90.1436L126.447 144.453Q126.447 150.448 123.459 153.202Q123.09 153.542 122.675 153.833Q118.737 156.583 111.167 156.583L109.967 156.583L109.967 157.783Q109.967 160.528 110.977 163.79Q112.064 167.17 113.948 168.887L114.291 169.2L164.289 169.2L164.64 168.849Q166.352 167.137 167.388 163.79Q168.434 160.534 168.434 157.783L168.434 156.583L167.234 156.583Q159.226 156.583 155.407 153.913Q155.197 153.763 154.998 153.597ZM21.7636 162.298Q32.2799 170.702 49.5117 170.701Q67.1544 170.701 77.8209 162.075Q80.5497 159.868 82.8219 157.097Q93.8879 143.6 93.888 116.84Q93.8881 87.3198 82.5045 74.0203Q79.6817 70.713 76.2645 68.2207Q65.8141 60.5988 49.8047 60.5988Q34.1887 60.5988 23.7547 67.952Q20.096 70.5304 17.0744 74.0131Q5.53828 87.3152 5.53828 116.694Q5.53828 143.523 16.4992 157.055Q18.8787 159.993 21.7636 162.298ZM154.002 154.323Q150.608 151.282 150.608 144.453L150.608 69.5991Q150.608 67.4423 149.835 65.6118Q149.48 64.7694 148.96 63.9961Q148.545 63.3682 147.994 62.8987Q146.361 61.5059 143.54 61.5059Q141.306 61.5059 138.377 62.4946Q135.447 63.4468 130.796 66.1567L107.395 79.8164L111.46 87.2871Q113.401 86.4082 116.001 85.8955Q118.638 85.3462 120.909 85.3462Q125.38 85.3462 126.884 87.4589Q127.647 88.5298 127.647 90.1436L127.647 144.453Q127.647 150.775 124.486 153.882Q123.967 154.393 123.362 154.816Q119.114 157.783 111.167 157.783Q111.167 158.369 111.217 158.983Q111.385 161.05 112.119 163.422Q113.108 166.499 114.756 168L163.792 168Q165.293 166.499 166.245 163.422Q167.008 161.05 167.182 158.983Q167.234 158.369 167.234 157.783Q158.848 157.783 154.71 154.89Q154.339 154.625 154.002 154.323ZM22.3343 161.214Q32.5664 169.501 49.5117 169.501Q66.8682 169.501 77.2476 160.992Q92.688 148.332 92.688 116.84Q92.688 87.7632 81.5918 74.7993Q78.9334 71.6846 75.7242 69.3162Q65.5385 61.7988 49.8047 61.7988Q34.4604 61.7988 24.2845 69.0509Q20.8359 71.5087 17.981 74.7993Q6.73828 87.7632 6.73828 116.694Q6.73828 148.581 22.3343 161.214ZM54.1849 158.122Q52.0231 158.991 49.5117 158.991Q47.2032 158.991 45.183 158.228Q43.005 157.405 41.1621 155.695Q37.6465 152.399 35.5225 143.098Q33.4351 133.796 33.4351 116.987Q33.4351 98.5664 35.5957 88.752Q37.793 78.9009 41.3086 75.605Q42.9515 74.0807 44.892 73.2613Q47.1473 72.3091 49.8047 72.3091Q52.6024 72.3091 54.9192 73.3645Q56.6966 74.1742 58.1909 75.605Q61.6333 78.9009 63.7207 88.5688Q65.8447 98.2368 65.8447 116.547Q65.8447 133.649 63.7207 142.951Q61.6333 152.253 58.0444 155.622Q56.2787 157.28 54.1849 158.122ZM53.7419 157.003Q51.7855 157.791 49.5117 157.791Q47.4272 157.791 45.6035 157.101Q43.6423 156.36 41.9828 154.82Q38.7347 151.775 36.6933 142.835Q34.6351 133.663 34.6351 116.987Q34.635 98.697 36.7669 89.0132Q38.8836 79.5232 42.1248 76.4847Q43.5953 75.1203 45.3319 74.3815Q47.3827 73.5091 49.8047 73.5091Q52.362 73.5091 54.47 74.4822Q56.0401 75.207 57.361 76.4717Q60.5379 79.5135 62.5487 88.8263Q64.6447 98.3671 64.6447 116.547Q64.6447 133.514 62.5498 142.688Q60.5432 151.63 57.2231 154.747Q55.6304 156.242 53.7419 157.003Z" fill="rgb(139.294,146.625,141.388)" fill-rule="evenodd" />
</svg>
